<?xml version="1.0" encoding="UTF-8" standalone="no"?>
<svg version="1.1" xmlns="http://www.w3.org/2000/svg" xmlns:xlink="http://www.w3.org/1999/xlink" viewBox="0 0 54 54" xml:space="preserve">
<g id="download">
	<path d="M26.293,46.707c0.092,0.092,0.203,0.165,0.325,0.216C26.74,46.973,26.87,47,27,47s0.26-0.027,0.382-0.077
		c0.122-0.051,0.233-0.124,0.325-0.216l16-16c0.391-0.391,0.391-1.023,0-1.414s-1.023-0.391-1.414,0L28,43.586V1
		c0-0.552-0.448-1-1-1s-1,0.448-1,1v42.586L11.707,29.293c-0.391-0.391-1.023-0.391-1.414,0s-0.391,1.023,0,1.414L26.293,46.707z"/>
	<path d="M43,52H11c-0.552,0-1,0.448-1,1s0.448,1,1,1h32c0.552,0,1-0.448,1-1S43.552,52,43,52z"/>
</g>
</svg>